<svg xmlns="http://www.w3.org/2000/svg" viewBox="0 0 413.25 426.82">
  <defs>
    <style>
      .cls-1 {
        fill: #ebebeb;
      }

      .cls-2 {
        fill: #263238;
      }

      .cls-3 {
        fill: #b983ff;
      }

      .cls-4 {
        opacity: 0.1;
      }

      .cls-5 {
        fill: #37474f;
      }

      .cls-6 {
        opacity: 0.2;
      }

      .cls-7, .cls-8 {
        fill: #fff;
      }

      .cls-8 {
        opacity: 0.4;
      }

      .cls-9 {
        fill: #dbdbdb;
      }

      .cls-10 {
        fill: #455a64;
      }
    </style>
  </defs>
  <g id="Capa_2" data-name="Capa 2">
    <g id="Speech_Bubble" data-name="Speech Bubble">
      <g>
        <g>
          <path class="cls-1" d="M49.26,273.85l-14.83.28-7.52.11c-2.51.05-5,0-7.54.06h-.45v-.45l-.05-12.63v-.5h.51l14.94.06c5,0,10,.11,14.95.16h.28v.27c0,2.14-.09,4.27-.14,6.37Zm0,0-.14-6.37c0-2.11-.11-4.19-.13-6.26l.27.27c-5,.05-10,.16-14.95.16l-14.94.07.5-.5-.06,12.63-.44-.45c2.46,0,4.92,0,7.4.06l7.43.11Z"/>
          <path class="cls-1" d="M32.59,289.78l-14.84.28-7.51.11c-2.51.05-5,0-7.55.06H2.25v-.45l-.05-12.63v-.5h.5l15,.06c5,0,10,.11,15,.16h.27v.27c0,2.14-.09,4.26-.13,6.37Zm0,0-.15-6.38c0-2.1-.11-4.18-.13-6.25l.28.27c-5,.05-10,.16-15,.16l-14.95.07.5-.5-.06,12.63-.44-.45c2.47,0,4.93,0,7.4.06l7.43.11Z"/>
          <path class="cls-1" d="M32.59,16.42l-14.84.28-7.51.11c-2.51.05-5,0-7.55.06H2.25v-.45L2.19,3.79V3.28h.5l15,.06c5,0,10,.11,15,.16h.27v.27c0,2.14-.09,4.26-.13,6.37Zm0,0L32.44,10c0-2.1-.11-4.18-.13-6.25l.28.27c-5,.05-10,.16-15,.16L2.69,4.29l.5-.5L3.13,16.42,2.69,16c2.47,0,4.93,0,7.4.06l7.43.11Z"/>
          <path class="cls-1" d="M410.56,16.42l-14.83.28-7.51.11c-2.52.05-5,0-7.55.06h-.45v-.45l-.05-12.63V3.28h.51l14.94.06c5,0,10,.11,14.95.16h.28v.27c0,2.14-.09,4.26-.14,6.37Zm0,0L410.42,10c0-2.1-.11-4.18-.13-6.25l.27.27c-5,.05-10,.16-14.95.16l-14.94.07.5-.5-.06,12.63-.44-.45c2.46,0,4.92,0,7.4.06l7.43.11Z"/>
          <path class="cls-1" d="M393.89,32.35l-14.84.28-7.51.11c-2.51,0-5,0-7.55.06h-.44v-.45l-.05-12.63v-.51h.5l14.95.06c5,0,10,.11,14.95.16h.27v.27c0,2.14-.09,4.26-.13,6.37Zm0,0L393.74,26c0-2.1-.11-4.18-.13-6.25l.28.27c-5,.05-10,.16-14.95.16L364,20.22l.5-.5-.06,12.63L364,31.9c2.47,0,4.93,0,7.4.06l7.43.11Z"/>
          <path class="cls-1" d="M317.32,180.14l-14.84.28-7.51.11c-2.51.05-5,0-7.55.06H287v-.45l-.06-12.63V167h.5l14.95.06c5,0,10,.12,14.95.17h.27v.27c0,2.14-.09,4.27-.13,6.38Zm0,0-.14-6.37c-.05-2.11-.12-4.19-.14-6.26l.28.27c-5,.05-10,.16-14.95.17l-14.95.06.5-.5-.05,12.63-.45-.44c2.47,0,4.93,0,7.4.05l7.43.11Z"/>
          <path class="cls-1" d="M300.64,196.07l-14.83.28-7.52.11c-2.51,0-5,0-7.55.06h-.44v-.45l-.06-12.63v-.5h.5l14.95.06c5,0,10,.12,14.95.17h.28v.27c0,2.14-.08,4.27-.13,6.38Zm0,0-.14-6.37c-.05-2.11-.11-4.19-.13-6.26l.27.27c-5,0-10,.16-14.95.17l-14.95.06.5-.5-.05,12.63-.45-.44c2.47,0,4.93,0,7.4.05l7.44.11Z"/>
          <path class="cls-1" d="M284,180.14l-14.83.28-7.52.11c-2.51.05-5,0-7.55.06h-.44v-.45l-.06-12.63V167h.5l14.95.06c5,0,10,.12,14.95.17h.27v.27c0,2.14-.08,4.27-.13,6.38Zm0,0-.14-6.37c-.05-2.11-.12-4.19-.13-6.26l.27.27c-5,.05-10,.16-14.95.17l-14.95.06.5-.5,0,12.63-.45-.44c2.47,0,4.93,0,7.4.05l7.44.11Z"/>
          <path class="cls-1" d="M410.56,289.78l-14.83.28-7.51.11c-2.52.05-5,0-7.55.06h-.45v-.45l-.05-12.63v-.5h.51l14.94.06c5,0,10,.11,14.95.16h.28v.27c0,2.14-.09,4.26-.14,6.37Zm0,0-.14-6.38c0-2.1-.11-4.18-.13-6.25l.27.27c-5,.05-10,.16-14.95.16l-14.94.07.5-.5-.06,12.63-.44-.45c2.46,0,4.92,0,7.4.06l7.43.11Z"/>
          <path class="cls-1" d="M156.55,54l-14.83.28-7.52.11c-2.51,0-5,0-7.54,0h-.45V54l0-12.64v-.5h.51l14.94.07c5,0,10,.11,15,.16h.28v.27c0,2.14-.08,4.27-.13,6.38Zm0,0-.14-6.38c0-2.1-.11-4.18-.13-6.26l.27.28c-5,0-10,.16-15,.16l-14.94.06.49-.5L127.1,54l-.44-.45c2.46,0,4.92,0,7.4.06l7.43.11Z"/>
        </g>
        <g>
          <path class="cls-1" d="M379.85,137.68l5.89-9.49-2.91-1.8a2.66,2.66,0,0,1-1.23-2.5,15.53,15.53,0,0,0,0-1.67,2.65,2.65,0,0,1,1.39-2.41l3-1.62-5.28-9.84-3,1.61a2.64,2.64,0,0,1-2.78-.18c-.45-.31-.93-.61-1.42-.88a2.65,2.65,0,0,1-1.4-2.4l.11-3.42-11.16-.35-.1,3.43a2.66,2.66,0,0,1-1.56,2.31l-.73.37c-.25.13-.49.27-.72.41a2.63,2.63,0,0,1-2.77,0l-2.93-1.81L346.41,117l2.92,1.8a2.68,2.68,0,0,1,1.23,2.5,15.54,15.54,0,0,0-.06,1.67,2.64,2.64,0,0,1-1.38,2.4l-3,1.62,5.28,9.85,3-1.62a2.66,2.66,0,0,1,2.77.18,15.7,15.7,0,0,0,1.41.87,2.62,2.62,0,0,1,1.4,2.41l-.1,3.42,11.16.35.11-3.43a2.64,2.64,0,0,1,1.55-2.3l.74-.37.72-.41a2.65,2.65,0,0,1,2.78,0Zm-9.45-7.05a9.15,9.15,0,1,1,3.74-12.39A9.14,9.14,0,0,1,370.4,130.63Z"/>
          <path class="cls-1" d="M58.16,245.22,64,235.73l-2.9-1.81a2.64,2.64,0,0,1-1.24-2.49,15.54,15.54,0,0,0,.06-1.67,2.63,2.63,0,0,1,1.38-2.41l3-1.62-5.28-9.84-3,1.61a2.62,2.62,0,0,1-2.77-.18,16,16,0,0,0-1.42-.88,2.66,2.66,0,0,1-1.4-2.41l.11-3.41-11.17-.35-.1,3.43A2.66,2.66,0,0,1,37.75,216l-.73.37-.71.41a2.65,2.65,0,0,1-2.78,0L30.61,215l-5.89,9.5,2.91,1.8a2.66,2.66,0,0,1,1.23,2.5,13.25,13.25,0,0,0-.05,1.67,2.65,2.65,0,0,1-1.39,2.4l-3,1.62,5.28,9.84,3-1.61a2.62,2.62,0,0,1,2.77.18c.46.31.93.6,1.42.87a2.66,2.66,0,0,1,1.4,2.41l-.11,3.42,11.17.35.1-3.43a2.65,2.65,0,0,1,1.56-2.3l.73-.37c.25-.13.49-.27.72-.41a2.67,2.67,0,0,1,2.79,0Zm-9.46-7.05a9.15,9.15,0,1,1,3.75-12.39A9.14,9.14,0,0,1,48.7,238.17Z"/>
          <path class="cls-1" d="M172.49,63.44l-3.91-6.77-2.07,1.2a1.87,1.87,0,0,1-1.95-.07c-.33-.21-.66-.41-1-.59a1.84,1.84,0,0,1-1-1.65V53.17h-7.83v2.39a1.84,1.84,0,0,1-1,1.65c-.35.18-.68.38-1,.59a1.87,1.87,0,0,1-2,.07l-2.08-1.2-3.91,6.77,2.09,1.2a1.87,1.87,0,0,1,.91,1.73c0,.19,0,.38,0,.58s0,.38,0,.57a1.87,1.87,0,0,1-.91,1.72l-2.09,1.21,3.91,6.77L150.7,76a1.89,1.89,0,0,1,2,.07,10.08,10.08,0,0,0,1,.59,1.85,1.85,0,0,1,1,1.65v2.4h7.83v-2.4a1.86,1.86,0,0,1,1-1.65,9.19,9.19,0,0,0,1-.59A1.87,1.87,0,0,1,166.5,76l2.08,1.2,3.91-6.77-2.08-1.2a1.86,1.86,0,0,1-.9-1.72c0-.2,0-.39,0-.58s0-.39,0-.58a1.86,1.86,0,0,1,.91-1.73ZM165,67a6.41,6.41,0,1,1-6.4-6.42A6.4,6.4,0,0,1,165,67Z"/>
        </g>
        <g>
          <g>
            <path class="cls-2" d="M45.46,260.55C32.39,273.34,30.2,293.13,33,310.47c.07.39.68.29.68-.08,0-3.95-.12-7.86-.1-11.76.07-.18.13-.35.2-.52,3.41-2.48,6.54-5.29,8.49-9.13,2.18-4.29,3-9.13,4.71-13.61.15-.43-.3-.31-.6-.09-7.95,5.87-10.49,12.18-12.77,20.61a70.54,70.54,0,0,1,1.38-13.13c1.72-8,5.12-15.93,10.87-21.87A.24.24,0,0,0,45.46,260.55Z"/>
            <g>
              <path class="cls-3" d="M47.92,262c2.25.07,3.65,3.67,5.41,4.71a1.68,1.68,0,0,0,2.48-.39c1.73-2.42-.65-5.41-2.89-7.08,1.6.66,2.93,1.82,4.66,2.14a1.61,1.61,0,0,0,2.1-1.26c.76-3.3-3.38-4.77-6.22-4.84,1.38-1,5.33-3.56,3.23-4.84s-6.77,2.44-8.28,3.66c-2.22,1.81-4.87,4.5-5,7.32C43.31,264.75,46.19,262.73,47.92,262Z"/>
              <path class="cls-4" d="M47.92,262c2.25.07,3.65,3.67,5.41,4.71a1.68,1.68,0,0,0,2.48-.39c1.73-2.42-.65-5.41-2.89-7.08,1.6.66,2.93,1.82,4.66,2.14a1.61,1.61,0,0,0,2.1-1.26c.76-3.3-3.38-4.77-6.22-4.84,1.38-1,5.33-3.56,3.23-4.84s-6.77,2.44-8.28,3.66c-2.22,1.81-4.87,4.5-5,7.32C43.31,264.75,46.19,262.73,47.92,262Z"/>
              <path class="cls-3" d="M47.27,262.59c2.87-1.31,8.39.58,8.86-.51.95-2.22-3.46-3.74-5.84-4,2.19-.59,6.4-1.54,6.27-3.66-.16-2.58-6.45-.36-9.63,2.08-4,3.08-4,6-3.32,6.64C44.52,263.92,46.79,262.81,47.27,262.59Z"/>
            </g>
          </g>
          <g>
            <path class="cls-2" d="M15.7,259.28c13.54,12.29,16.49,32,14.4,49.41-.06.4-.67.31-.69-.06-.15-3.94-.18-7.85-.34-11.75-.07-.17-.14-.34-.22-.51-3.5-2.35-6.74-5-8.83-8.8-2.34-4.2-3.38-9-5.22-13.42-.17-.43.29-.32.6-.11,8.16,5.56,10.93,11.76,13.53,20.1a69.48,69.48,0,0,0-1.88-13.06c-2-7.93-5.71-15.73-11.68-21.44A.24.24,0,0,1,15.7,259.28Z"/>
            <g>
              <path class="cls-3" d="M13.3,260.86c-2.24.16-3.51,3.81-5.22,4.92a1.68,1.68,0,0,1-2.5-.29c-1.83-2.36.44-5.44,2.62-7.19-1.58.72-2.86,1.92-4.58,2.32a1.63,1.63,0,0,1-2.15-1.18c-.88-3.27,3.2-4.9,6-5.08-1.41-.9-5.46-3.35-3.41-4.71S11,251.82,12.51,253c2.29,1.72,5,4.31,5.24,7.13C18,263.4,15.06,261.49,13.3,260.86Z"/>
              <path class="cls-4" d="M13.3,260.86c-2.24.16-3.51,3.81-5.22,4.92a1.68,1.68,0,0,1-2.5-.29c-1.83-2.36.44-5.44,2.62-7.19-1.58.72-2.86,1.92-4.58,2.32a1.63,1.63,0,0,1-2.15-1.18c-.88-3.27,3.2-4.9,6-5.08-1.41-.9-5.46-3.35-3.41-4.71S11,251.82,12.51,253c2.29,1.72,5,4.31,5.24,7.13C18,263.4,15.06,261.49,13.3,260.86Z"/>
              <path class="cls-3" d="M14,261.39c-2.92-1.19-8.37.89-8.88-.17-1-2.18,3.32-3.87,5.69-4.25-2.22-.51-6.45-1.3-6.4-3.42.06-2.58,6.42-.6,9.7,1.71,4.12,2.92,4.21,5.89,3.57,6.51C16.77,262.62,14.45,261.59,14,261.39Z"/>
            </g>
          </g>
          <g>
            <path class="cls-2" d="M29.55,291.73a132.65,132.65,0,0,0,4.21,19.43.48.48,0,0,0,.94-.19c-.89-6-2.51-11.86-3.4-17.85a90,90,0,0,1-1-18.33c.57-10.09,3.31-20.82,9.9-28.71.14-.19-.17-.46-.32-.28C26.66,261.17,28.76,280,28.77,281.7,26.91,275.33,25,268,17.92,261.56c-.3-.28-.54-.14-.49.33,1.27,11.8,4.55,18,11.39,24.27Q29.11,289,29.55,291.73Z"/>
            <g>
              <path class="cls-3" d="M40.27,247.84c2.38-1.05,5.65,2,8,2.18a2,2,0,0,0,2.38-1.66c.58-3.39-3.39-5.29-6.56-5.9,2-.12,4,.41,5.91-.12A1.87,1.87,0,0,0,51.54,240c-.87-3.81-5.91-3.25-8.9-1.89,1-1.69,3.74-6.38.91-6.66s-5.78,5.94-6.74,8c-1.39,3-2.79,7.12-1.47,10.1C36.86,253,38.83,249.43,40.27,247.84Z"/>
              <path class="cls-4" d="M40.27,247.84c2.38-1.05,5.65,2,8,2.18a2,2,0,0,0,2.38-1.66c.58-3.39-3.39-5.29-6.56-5.9,2-.12,4,.41,5.91-.12A1.87,1.87,0,0,0,51.54,240c-.87-3.81-5.91-3.25-8.9-1.89,1-1.69,3.74-6.38.91-6.66s-5.78,5.94-6.74,8c-1.39,3-2.79,7.12-1.47,10.1C36.86,253,38.83,249.43,40.27,247.84Z"/>
              <path class="cls-3" d="M39.88,248.75c2.32-2.81,9-3.64,8.94-5-.13-2.78-5.47-2.13-8.09-1.24,2-1.72,5.86-4.82,4.66-6.95-1.46-2.6-6.87,2.87-8.94,7-2.62,5.21-1.1,8.27-.11,8.55C37.7,251.51,39.49,249.21,39.88,248.75Z"/>
            </g>
          </g>
          <path class="cls-3" d="M20.88,295.28,15.07,339.7H50.44c-.73-3.94-7.31-44.47-7.31-44.47Z"/>
        </g>
        <polygon class="cls-2" points="0 339.85 51.66 339.61 103.31 339.52 206.63 339.35 309.94 339.52 361.6 339.6 413.25 339.85 361.6 340.09 309.94 340.18 206.63 340.35 103.31 340.18 51.66 340.09 0 339.85"/>
        <ellipse class="cls-1" cx="206.63" cy="405.75" rx="149.06" ry="21.08"/>
        <g>
          <g>
            <path class="cls-2" d="M114.2,184.38,108,160,59,172.41l-6.48-25.5L91.66,57.6l19.44-4.94L130,127l15.69-4,6.52,25.68-15.69,4,6.21,24.43ZM80.6,139.57l24.25-6.16-8-31.56Z"/>
            <path class="cls-2" d="M254.65,102.82A65.6,65.6,0,0,1,251,125.18a55.62,55.62,0,0,1-10.12,17.66,45.89,45.89,0,0,1-15.18,11.59,43.94,43.94,0,0,1-19,4.14,44.51,44.51,0,0,1-19.14-4.14,45.42,45.42,0,0,1-15.27-11.59,54,54,0,0,1-10-17.66,67.09,67.09,0,0,1-3.59-22.36,67.07,67.07,0,0,1,3.59-22.35,53.86,53.86,0,0,1,10-17.66,46.64,46.64,0,0,1,15.27-11.69,43.71,43.71,0,0,1,19.14-4.23,43.15,43.15,0,0,1,19,4.23,47.14,47.14,0,0,1,15.18,11.69A55.51,55.51,0,0,1,251,80.47,65.58,65.58,0,0,1,254.65,102.82Zm-29.63,0q0-12.87-5.15-20.88t-13.24-8q-8.48,0-13.53,8T188,102.82q0,12.89,5.06,20.79t13.53,7.92q8.09,0,13.24-7.92T225,102.82Z"/>
            <path class="cls-2" d="M307.47,179.67l4-24.88-49.95-8.09,4.21-26L337.27,54.4l19.8,3.21L344.8,133.34l16,2.59-4.24,26.16-16-2.59-4,24.88Zm-13-54.48,24.7,4,5.21-32.14Z"/>
          </g>
          <g>
            <path class="cls-2" d="M165.3,29.17a12.93,12.93,0,0,1-5.72-1.24,14.05,14.05,0,0,1-4.4-3.27A15.1,15.1,0,0,1,152.33,20a14.92,14.92,0,0,1-1-5.38,14.47,14.47,0,0,1,1.07-5.49,15.4,15.4,0,0,1,3-4.65,14.3,14.3,0,0,1,4.47-3.21A13.28,13.28,0,0,1,165.42.08a12.57,12.57,0,0,1,5.68,1.27,14.09,14.09,0,0,1,4.38,3.34,15.26,15.26,0,0,1,2.83,4.68,14.82,14.82,0,0,1,1,5.33,14.52,14.52,0,0,1-1,5.48,14.75,14.75,0,0,1-2.91,4.6A13.84,13.84,0,0,1,170.92,28,13.21,13.21,0,0,1,165.3,29.17ZM157,14.62a11.78,11.78,0,0,0,.56,3.6,9.73,9.73,0,0,0,1.64,3.07,8.08,8.08,0,0,0,2.63,2.14,8.12,8.12,0,0,0,7.11,0,8.19,8.19,0,0,0,2.62-2.2,9.92,9.92,0,0,0,1.62-3.09,11.62,11.62,0,0,0,.54-3.5,11.2,11.2,0,0,0-.58-3.59A10,10,0,0,0,171.46,8a7.84,7.84,0,0,0-2.62-2.12,8.16,8.16,0,0,0-7.09,0,8,8,0,0,0-2.63,2.18,9.86,9.86,0,0,0-1.6,3.07A11.56,11.56,0,0,0,157,14.62Z"/>
            <path class="cls-2" d="M192.85,29.37a11.63,11.63,0,0,1-4.64-.89,10.39,10.39,0,0,1-3.5-2.4,10.7,10.7,0,0,1-2.2-3.5,11.42,11.42,0,0,1-.77-4.16,11.55,11.55,0,0,1,.77-4.2,10.66,10.66,0,0,1,2.2-3.49,10.41,10.41,0,0,1,3.5-2.41,12.51,12.51,0,0,1,9.27,0,10.47,10.47,0,0,1,5.67,5.9,11.55,11.55,0,0,1,.77,4.2,11.42,11.42,0,0,1-.77,4.16,10.81,10.81,0,0,1-2.18,3.5,10.16,10.16,0,0,1-3.47,2.4A11.72,11.72,0,0,1,192.85,29.37Zm-5.53-10.95a7.49,7.49,0,0,0,.42,2.57,6.31,6.31,0,0,0,1.17,2,5.37,5.37,0,0,0,1.76,1.31,5.4,5.4,0,0,0,4.36,0A5.27,5.27,0,0,0,196.79,23,6.2,6.2,0,0,0,198,21a7.65,7.65,0,0,0,.43-2.59,7.48,7.48,0,0,0-.43-2.54,6,6,0,0,0-1.17-2A5.12,5.12,0,0,0,192.85,12a5,5,0,0,0-2.18.48,5.6,5.6,0,0,0-1.76,1.34,6.09,6.09,0,0,0-1.17,2A7.48,7.48,0,0,0,187.32,18.42Z"/>
            <path class="cls-2" d="M220.24,29.37a8.34,8.34,0,0,1-4.36-1.11,7.93,7.93,0,0,1-2.91-3V37.57h-5.41V7.8h4.72v3.63a8.67,8.67,0,0,1,3-2.93,8.47,8.47,0,0,1,4.28-1.07,9,9,0,0,1,4,.87,9.81,9.81,0,0,1,3.13,2.34,11,11,0,0,1,2.06,3.48,11.91,11.91,0,0,1,.75,4.22,13.22,13.22,0,0,1-.69,4.32,10.78,10.78,0,0,1-1.92,3.52A9,9,0,0,1,224,28.52,8.14,8.14,0,0,1,220.24,29.37Zm-1.82-4.61a4.83,4.83,0,0,0,2.24-.52,5.28,5.28,0,0,0,1.76-1.42,6.42,6.42,0,0,0,1.13-2.06,7.32,7.32,0,0,0,.41-2.42,6.71,6.71,0,0,0-.45-2.48,6.23,6.23,0,0,0-1.23-2,5.9,5.9,0,0,0-1.86-1.34A5.6,5.6,0,0,0,218.1,12a5.27,5.27,0,0,0-1.58.26,5.79,5.79,0,0,0-1.49.75,6.28,6.28,0,0,0-1.23,1.13,4.6,4.6,0,0,0-.83,1.41v5a7.11,7.11,0,0,0,2.22,3A5,5,0,0,0,218.42,24.76Z"/>
            <path class="cls-2" d="M241.16,29.37a16.29,16.29,0,0,1-5.21-.85,12.81,12.81,0,0,1-4.36-2.42l2-3.4a17,17,0,0,0,3.78,2.08,10.11,10.11,0,0,0,3.65.71,4.58,4.58,0,0,0,2.55-.61,1.94,1.94,0,0,0,.93-1.73,1.74,1.74,0,0,0-1.09-1.66,24.21,24.21,0,0,0-3.56-1.21c-1.37-.38-2.54-.74-3.51-1.09A9.33,9.33,0,0,1,234,18a4.15,4.15,0,0,1-1.29-1.54,4.89,4.89,0,0,1-.4-2.08,6.71,6.71,0,0,1,.62-2.91,6.47,6.47,0,0,1,1.76-2.2,8.16,8.16,0,0,1,2.65-1.39,10.51,10.51,0,0,1,3.29-.49,14,14,0,0,1,4.46.69,11,11,0,0,1,3.82,2.22l-2.18,3.27a12.71,12.71,0,0,0-3.13-1.77,8.49,8.49,0,0,0-3-.57,4.31,4.31,0,0,0-2.3.57,2,2,0,0,0-.93,1.81,1.73,1.73,0,0,0,.22.93,1.88,1.88,0,0,0,.71.65,6.27,6.27,0,0,0,1.27.54c.52.18,1.18.36,2,.55,1.45.38,2.7.75,3.73,1.13a10.43,10.43,0,0,1,2.55,1.29,4.66,4.66,0,0,1,1.45,1.68,5.12,5.12,0,0,1,.47,2.28,5.9,5.9,0,0,1-2.3,4.91A9.94,9.94,0,0,1,241.16,29.37Z"/>
            <path class="cls-2" d="M254.29,18.18V0h5.42V18.18Zm0,10.78v-6.1h5.42V29Z"/>
          </g>
        </g>
        <g>
          <g>
            <rect class="cls-5" x="191.71" y="270.55" width="35.51" height="2.91"/>
            <rect class="cls-5" x="191.71" y="274.34" width="35.51" height="2.91"/>
            <rect class="cls-5" x="191.71" y="278.13" width="35.51" height="2.91"/>
            <rect class="cls-5" x="191.71" y="281.92" width="35.51" height="2.91"/>
            <rect class="cls-5" x="191.71" y="285.71" width="35.51" height="2.91"/>
          </g>
          <g>
            <rect class="cls-5" x="175.08" y="361.3" width="67.52" height="2.91"/>
            <rect class="cls-5" x="175.08" y="365.09" width="67.52" height="2.91"/>
            <rect class="cls-5" x="175.08" y="368.88" width="67.52" height="2.91"/>
            <rect class="cls-5" x="175.08" y="372.67" width="67.52" height="2.91"/>
            <rect class="cls-5" x="175.08" y="376.46" width="67.52" height="2.91"/>
          </g>
          <g>
            <g>
              <path class="cls-3" d="M145.46,246.5c0-.39-14.78-5.35-14.78-5.35l.88-50.89,19.64-4.21Z"/>
              <path class="cls-6" d="M145.46,246.5c0-.39-14.78-5.35-14.78-5.35l.88-50.89,19.64-4.21Z"/>
            </g>
            <g>
              <path class="cls-3" d="M281.12,266.48c.1-.38,15.71.06,15.71.06l16.69-48.08-17-10.72Z"/>
              <path class="cls-6" d="M281.12,266.48c.1-.38,15.71.06,15.71.06l16.69-48.08-17-10.72Z"/>
            </g>
            <path class="cls-3" d="M142.61,265.24s5.49-82.3,10.31-109.37c0,0,99.41,7.52,153.08,28,0,0-27.67,96.13-29.1,100.9C276.9,284.8,206.89,271,142.61,265.24Z"/>
            <g>
              <path class="cls-4" d="M231.35,166.86c-1.62,9.91-3.25,19.82-4.95,29.71l-5.12,29.68-.28-.42,33.31,7.91,16.64,4,16.62,4.11-16.71-3.74-16.69-3.82-33.34-7.79-.33-.08.06-.34,5.3-29.64Q228.55,181.66,231.35,166.86Z"/>
              <path class="cls-4" d="M227.69,172.51a1.93,1.93,0,1,1-3.21-1.46,2,2,0,0,1,1.47-.48A2,2,0,0,1,227.69,172.51Zm0,0a1.56,1.56,0,1,0-1.74,1.56,1.61,1.61,0,0,0,1.19-.36A1.57,1.57,0,0,0,227.69,172.51Z"/>
              <path class="cls-4" d="M226,184.75a2,2,0,0,1-1.75,1.94,2,2,0,0,1-1.46-.47,2,2,0,0,1,0-2.93,1.94,1.94,0,0,1,3.21,1.46Zm0,0a1.63,1.63,0,0,0-.55-1.19,1.57,1.57,0,1,0,0,2.39A1.64,1.64,0,0,0,226,184.75Z"/>
              <path class="cls-4" d="M223.8,197.69a2,2,0,0,1-1.75,1.94,2,2,0,0,1-1.46-.48,2,2,0,0,1-.66-1.46,2,2,0,0,1,.66-1.46,1.94,1.94,0,0,1,3.21,1.46Zm0,0a1.6,1.6,0,0,0-.55-1.19,1.57,1.57,0,1,0,0,2.39A1.64,1.64,0,0,0,223.8,197.69Z"/>
              <path class="cls-4" d="M221.65,210.63a1.94,1.94,0,1,1-3.87,0,2,2,0,0,1,.66-1.46,1.94,1.94,0,0,1,3.21,1.46Zm0,0a1.64,1.64,0,0,0-.55-1.2,1.66,1.66,0,0,0-1.2-.36,1.57,1.57,0,1,0,1.2,2.76A1.64,1.64,0,0,0,221.65,210.63Z"/>
              <path class="cls-4" d="M229,231.27a1.94,1.94,0,0,1-1.74,1.93,1.94,1.94,0,1,1,0-3.87A1.94,1.94,0,0,1,229,231.27Zm0,0a1.56,1.56,0,1,0-1.74,1.56,1.62,1.62,0,0,0,1.19-.37A1.56,1.56,0,0,0,229,231.27Z"/>
              <path class="cls-4" d="M241.19,234.25a1.94,1.94,0,0,1-3.21,1.46,2,2,0,0,1,0-2.93,1.94,1.94,0,0,1,3.21,1.47Zm0,0a1.64,1.64,0,0,0-.55-1.2,1.57,1.57,0,1,0,0,2.39A1.63,1.63,0,0,0,241.19,234.25Z"/>
              <path class="cls-4" d="M253.4,237.23a2,2,0,0,1-1.75,1.93,2,2,0,0,1-1.46-.47,2,2,0,0,1,0-2.93,1.94,1.94,0,0,1,3.21,1.47Zm0,0a1.6,1.6,0,0,0-.55-1.2,1.57,1.57,0,1,0,0,2.39A1.6,1.6,0,0,0,253.4,237.23Z"/>
              <path class="cls-4" d="M265.61,240.2a1.94,1.94,0,0,1-1.74,1.94,2,2,0,0,1-1.46-.47,1.94,1.94,0,0,1,1.46-3.4A1.94,1.94,0,0,1,265.61,240.2Zm0,0a1.56,1.56,0,1,0-.55,1.2A1.56,1.56,0,0,0,265.61,240.2Z"/>
              <path class="cls-4" d="M277.82,243.32a1.94,1.94,0,0,1-1.89,1.79,2,2,0,0,1-1.42-.58,1.94,1.94,0,0,1,1.72-3.27A1.94,1.94,0,0,1,277.82,243.32Zm0,0a1.55,1.55,0,0,0-1.62-1.69,1.57,1.57,0,1,0,1.62,1.69Z"/>
              <path class="cls-4" d="M219.5,223.57a1.94,1.94,0,1,1-1.75-1.93A1.94,1.94,0,0,1,219.5,223.57Zm0,0a1.64,1.64,0,0,0-.55-1.2,1.62,1.62,0,0,0-1.2-.36,1.57,1.57,0,1,0,1.2,2.76A1.64,1.64,0,0,0,219.5,223.57Z"/>
            </g>
            <g>
              <g>
                <circle class="cls-6" cx="180.06" cy="224.01" r="28.23" transform="translate(-103.61 177.83) rotate(-41.96)"/>
                <circle class="cls-2" cx="180.06" cy="224.01" r="22.64" transform="translate(-93.19 313.11) rotate(-69.27)"/>
                <g>
                  <rect class="cls-3" x="172.93" y="215.24" width="5.36" height="5.36" transform="translate(37.11 -25.28) rotate(9.2)"/>
                  <rect class="cls-3" x="168.5" y="209.09" width="5.36" height="5.36" transform="translate(36.07 -24.65) rotate(9.2)"/>
                  <rect class="cls-3" x="189.67" y="212.52" width="5.36" height="5.36" transform="translate(36.89 -27.99) rotate(9.2)"/>
                  <rect class="cls-3" x="165.09" y="230.14" width="5.36" height="5.36" transform="translate(39.39 -23.83) rotate(9.2)"/>
                  <rect class="cls-3" x="186.26" y="233.57" width="5.36" height="5.36" transform="translate(40.21 -27.17) rotate(9.2)"/>
                  <rect class="cls-3" x="171.24" y="225.71" width="5.36" height="5.36" transform="translate(38.76 -24.87) rotate(9.2)"/>
                  <rect class="cls-3" x="177.38" y="221.33" width="5.36" height="5.36" transform="translate(38.14 -25.91) rotate(9.2)"/>
                  <rect class="cls-3" x="183.52" y="216.96" width="5.36" height="5.36" transform="translate(37.52 -26.95) rotate(9.2)"/>
                  <rect class="cls-3" x="181.82" y="227.42" width="5.36" height="5.36" transform="translate(39.18 -26.55) rotate(9.2)"/>
                </g>
              </g>
              <g>
                <g>
                  <circle class="cls-3" cx="255.82" cy="235.85" r="28.23" transform="translate(-88.75 284.23) rotate(-50.67)"/>
                  <circle class="cls-6" cx="255.82" cy="235.85" r="28.23" transform="translate(-88.75 284.23) rotate(-50.67)"/>
                  <path class="cls-6" d="M283.29,242.38c-.13.55-.28,1.09-.45,1.63l-55-11.74c.13-1,.31-2,.54-3a28.24,28.24,0,1,1,54.94,13.06Z"/>
                </g>
                <circle class="cls-2" cx="255.82" cy="235.85" r="22.64" transform="translate(-71.15 116.85) rotate(-22.68)"/>
                <rect class="cls-3" x="253.14" y="222.5" width="5.36" height="26.69" transform="translate(61.46 -52.76) rotate(13.37)"/>
                <g>
                  <path class="cls-3" d="M284.92,241.85l-57.8-13.74a29.71,29.71,0,0,1,57.8,13.74Z"/>
                  <path class="cls-6" d="M284.92,241.85l-57.8-13.74a29.71,29.71,0,0,1,57.8,13.74Z"/>
                </g>
              </g>
              <path class="cls-4" d="M206.7,252.63a10.4,10.4,0,0,1,2.61-6.36,7.58,7.58,0,0,1,3.07-2.06,8.5,8.5,0,0,1,3.7-.41,7.32,7.32,0,0,1,3.55,1.36,7.44,7.44,0,0,1,2.25,3,11.57,11.57,0,0,1,.59,6.85,18.25,18.25,0,0,0-2-6.14,5.88,5.88,0,0,0-4.61-3.06,7,7,0,0,0-5.49,1.6A14.82,14.82,0,0,0,206.7,252.63Z"/>
            </g>
            <g>
              <path class="cls-7" d="M150.34,195.05c.24-3,.58-6,.86-9s.65-6,1-9,.74-6,1.12-9,.81-6,1.21-9l.11-.8.81.05q9.76.62,19.5,1.6c3.25.34,6.49.71,9.73,1.13s6.46.89,9.67,1.48l-19.51-1.21L155.36,160l.92-.75c-.45,3-.86,6-1.33,9s-.91,6-1.41,8.95-1,6-1.52,8.93S151,192.08,150.34,195.05Z"/>
              <path class="cls-7" d="M155,217.86a24.65,24.65,0,0,1,4.51-10.09c.55-.75,1.18-1.45,1.79-2.17s1.33-1.33,2-2,1.47-1.18,2.22-1.76,1.58-1,2.39-1.51,1.7-.83,2.56-1.22l2.69-.93,2.77-.58c.93-.13,1.88-.16,2.82-.23a27.25,27.25,0,0,1,10.86,2.08,38.56,38.56,0,0,0-10.78-.71,25.42,25.42,0,0,0-10.07,3.12,29.78,29.78,0,0,0-8.18,6.75A33.18,33.18,0,0,0,155,217.86Z"/>
              <path class="cls-7" d="M232.91,225.49a24.6,24.6,0,0,1,5.87-9.37c.65-.67,1.37-1.28,2.06-1.91s1.51-1.13,2.26-1.69,1.62-1,2.44-1.43,1.71-.81,2.58-1.18,1.8-.59,2.71-.85l2.78-.55,2.83-.18c.94,0,1.88.09,2.82.15A27.23,27.23,0,0,1,269.74,212a38.52,38.52,0,0,0-10.58-2.19,25.43,25.43,0,0,0-10.41,1.7,29.43,29.43,0,0,0-9,5.56A33.25,33.25,0,0,0,232.91,225.49Z"/>
            </g>
          </g>
          <g>
            <g>
              <g>
                <path class="cls-3" d="M145.77,316c-7.23,0-23.07-1.63-33.25-14.73-13-16.76-8.33-48.91-8.12-50.27l5.66.86c0,.31-4.55,31.09,7,45.9,11.27,14.48,31.7,12.4,31.9,12.38l.64,5.68A33.5,33.5,0,0,1,145.77,316Z"/>
                <path class="cls-8" d="M145.77,316c-7.23,0-23.07-1.63-33.25-14.73-13-16.76-8.33-48.91-8.12-50.27l5.66.86c0,.31-4.55,31.09,7,45.9,11.27,14.48,31.7,12.4,31.9,12.38l.64,5.68A33.5,33.5,0,0,1,145.77,316Z"/>
              </g>
              <path class="cls-3" d="M111.72,255.71a20.3,20.3,0,0,1-3.16-.26c-9.54-1.55-13.77-7.26-15.63-11.78s-2.3-10-1.29-16.28l12.11,2c-.63,3.89-.45,7.31.51,9.65.69,1.66,2,3.66,6.27,4.34,1.93.32,4,.15,6.22-3.16a22.81,22.81,0,0,0,3.07-8.23l12.11,2A35.45,35.45,0,0,1,127,247C123.18,252.68,117.85,255.71,111.72,255.71Z"/>
              <g>
                <path class="cls-3" d="M157.73,332.34c0-.26-10.26-1.9-10.26-1.9l-5-33.4,12.4-4.9Z"/>
                <path class="cls-6" d="M157.73,332.34c0-.26-10.26-1.9-10.26-1.9l-5-33.4,12.4-4.9Z"/>
              </g>
            </g>
            <g>
              <path class="cls-3" d="M258.92,332.4c0-.26,10.3-1.67,10.3-1.67l5.7-33.29-12.28-5.17Z"/>
              <path class="cls-6" d="M258.92,332.4c0-.26,10.3-1.67,10.3-1.67l5.7-33.29-12.28-5.17Z"/>
            </g>
            <path class="cls-3" d="M153.47,284.66s82.78-3.54,110.75,1.12c0,0-8.21,80.11-8.66,81.66,0,0-82.35-.22-95.22,0C160.34,367.44,153.36,314.17,153.47,284.66Z"/>
            <g>
              <path class="cls-6" d="M178.61,306.61s45.2-1.78,60.46.57c0,0-4.48,40.39-4.72,41.17,0,0-45-.11-52,0C182.36,348.35,179.28,320.71,178.61,306.61Z"/>
              <path class="cls-6" d="M184.79,348.34l-2.43,0s-3.08-27.65-3.75-41.75l2.82-.1Z"/>
              <g>
                <path class="cls-3" d="M198.12,316.58a4.81,4.81,0,1,0,3.14,6A4.81,4.81,0,0,0,198.12,316.58Zm2.58,5.85a4.22,4.22,0,1,1-2.75-5.29A4.21,4.21,0,0,1,200.7,322.43Zm-2.58-5.85a4.81,4.81,0,1,0,3.14,6A4.81,4.81,0,0,0,198.12,316.58Zm2.58,5.85a4.22,4.22,0,1,1-2.75-5.29A4.21,4.21,0,0,1,200.7,322.43Zm-2.58-5.85a4.81,4.81,0,1,0,3.14,6A4.81,4.81,0,0,0,198.12,316.58Zm2.58,5.85a4.22,4.22,0,1,1-2.75-5.29A4.21,4.21,0,0,1,200.7,322.43Zm-1-10.93a10.13,10.13,0,1,0,6.62,12.71A10.14,10.14,0,0,0,199.72,311.5ZM202,322.83a5.55,5.55,0,1,1-3.62-7A5.56,5.56,0,0,1,202,322.83Zm-.71-.22a4.81,4.81,0,1,0-6,3.14A4.81,4.81,0,0,0,201.26,322.61Zm-.56-.18a4.22,4.22,0,1,1-2.75-5.29A4.21,4.21,0,0,1,200.7,322.43Zm-2.58-5.85a4.81,4.81,0,1,0,3.14,6A4.81,4.81,0,0,0,198.12,316.58Zm2.58,5.85a4.22,4.22,0,1,1-2.75-5.29A4.21,4.21,0,0,1,200.7,322.43Zm-2.58-5.85a4.81,4.81,0,1,0,3.14,6A4.81,4.81,0,0,0,198.12,316.58Zm2.58,5.85a4.22,4.22,0,1,1-2.75-5.29A4.21,4.21,0,0,1,200.7,322.43Z"/>
                <g>
                  <polygon class="cls-3" points="195.61 331.01 191.9 329.84 191.28 332.54 194.58 333.58 195.61 331.01"/>
                  <polygon class="cls-3" points="188.94 327.53 187.14 324.07 184.79 325.54 186.39 328.61 188.94 327.53"/>
                  <polygon class="cls-3" points="186.68 320.35 187.85 316.63 185.15 316.01 184.11 319.31 186.68 320.35"/>
                  <polygon class="cls-3" points="190.16 313.67 193.61 311.87 192.15 309.52 189.07 311.13 190.16 313.67"/>
                  <polygon class="cls-3" points="197.34 311.41 201.05 312.58 201.68 309.89 198.37 308.84 197.34 311.41"/>
                  <polygon class="cls-3" points="204.02 314.89 205.81 318.35 208.16 316.88 206.56 313.81 204.02 314.89"/>
                  <polygon class="cls-3" points="206.28 322.07 205.11 325.79 207.8 326.41 208.84 323.11 206.28 322.07"/>
                  <polygon class="cls-3" points="202.8 328.75 199.34 330.55 200.81 332.89 203.88 331.3 202.8 328.75"/>
                </g>
              </g>
              <g>
                <path class="cls-9" d="M214.46,330.72a3.23,3.23,0,1,0,.95,4.48A3.24,3.24,0,0,0,214.46,330.72Zm.62,4.26a2.84,2.84,0,1,1-.83-3.93A2.84,2.84,0,0,1,215.08,335Zm-.62-4.26a3.23,3.23,0,1,0,.95,4.48A3.24,3.24,0,0,0,214.46,330.72Zm.62,4.26a2.84,2.84,0,1,1-.83-3.93A2.84,2.84,0,0,1,215.08,335Zm-.62-4.26a3.23,3.23,0,1,0,.95,4.48A3.24,3.24,0,0,0,214.46,330.72Zm.62,4.26a2.84,2.84,0,1,1-.83-3.93A2.84,2.84,0,0,1,215.08,335Zm1.34-7.27a6.83,6.83,0,1,0,2,9.44A6.83,6.83,0,0,0,216.42,327.71Zm-.59,7.76a3.74,3.74,0,1,1-1.09-5.17A3.74,3.74,0,0,1,215.83,335.47Zm-.42-.27a3.24,3.24,0,1,0-4.48.94A3.24,3.24,0,0,0,215.41,335.2Zm-.33-.22a2.84,2.84,0,1,1-.83-3.93A2.84,2.84,0,0,1,215.08,335Zm-.62-4.26a3.23,3.23,0,1,0,.95,4.48A3.24,3.24,0,0,0,214.46,330.72Zm.62,4.26a2.84,2.84,0,1,1-.83-3.93A2.84,2.84,0,0,1,215.08,335Zm-.62-4.26a3.23,3.23,0,1,0,.95,4.48A3.24,3.24,0,0,0,214.46,330.72Zm.62,4.26a2.84,2.84,0,1,1-.83-3.93A2.84,2.84,0,0,1,215.08,335Z"/>
                <g>
                  <polygon class="cls-9" points="210.23 339.62 208.03 338.19 207.14 339.83 209.09 341.1 210.23 339.62"/>
                  <polygon class="cls-9" points="206.53 336.16 205.98 333.59 204.2 334.12 204.68 336.4 206.53 336.16"/>
                  <polygon class="cls-9" points="206.36 331.09 207.79 328.89 206.15 328 204.88 329.96 206.36 331.09"/>
                  <polygon class="cls-9" points="209.82 327.39 212.39 326.85 211.86 325.06 209.58 325.55 209.82 327.39"/>
                  <polygon class="cls-9" points="214.89 327.22 217.09 328.65 217.98 327.02 216.02 325.75 214.89 327.22"/>
                  <polygon class="cls-9" points="218.59 330.69 219.13 333.25 220.92 332.73 220.44 330.45 218.59 330.69"/>
                  <polygon class="cls-9" points="218.76 335.76 217.33 337.95 218.96 338.85 220.23 336.89 218.76 335.76"/>
                  <polygon class="cls-9" points="215.29 339.46 212.73 340 213.25 341.79 215.53 341.3 215.29 339.46"/>
                </g>
              </g>
            </g>
            <g>
              <polygon class="cls-3" points="262.22 358.12 265.4 358.71 274.5 297.08 270.88 296.42 262.22 358.12"/>
              <g>
                <path class="cls-3" d="M234.35,348.35l4.72-41.17,31.81-10.76s-8.66,62.37-8.66,61.7Z"/>
                <path class="cls-8" d="M234.35,348.35l4.72-41.17,31.81-10.76s-8.66,62.37-8.66,61.7Z"/>
              </g>
            </g>
            <path class="cls-7" d="M157.27,308.84c-.52-3.41-.8-6.85-1-10.29-.1-1.72-.15-3.44-.18-5.17s-.07-3.45,0-5.17l0-.45.44,0c6.32-.34,12.63-.75,18.95-1s12.64-.59,19-.79c-6.31.57-12.62,1-18.93,1.51s-12.62.85-18.93,1.28l.45-.48,0,5.15.06,5.15q0,2.58.09,5.16Z"/>
            <path class="cls-7" d="M243.51,307.78q3-1.41,6-2.61c2-.82,4.06-1.6,6.12-2.31s4.14-1.4,6.24-2a58.1,58.1,0,0,1,6.39-1.5l.54-.08-.1.51c-.5,2.66-1,5.32-1.64,8,.24-2.71.56-5.4.91-8.09l.44.42c-2.1.5-4.19,1.09-6.27,1.7s-4.14,1.28-6.21,1.95Z"/>
            <g>
              <polygon class="cls-4" points="171.03 284.83 171.56 295.13 172.02 305.43 172.82 326.04 173.44 346.65 173.69 356.96 173.86 367.27 173.32 356.97 172.86 346.67 172.07 326.06 171.45 305.45 171.2 295.14 171.03 284.83"/>
              <path class="cls-4" d="M168.08,291a2,2,0,0,1-1.33,2.24,2,2,0,0,1-1.53-.18,2,2,0,0,1-.58-2.86,1.94,1.94,0,0,1,3.44.8Zm0,0a1.62,1.62,0,0,0-.78-1.07,1.64,1.64,0,0,0-1.24-.12,1.57,1.57,0,0,0,.62,3.06,1.64,1.64,0,0,0,1.1-.59A1.58,1.58,0,0,0,168.08,291Z"/>
              <path class="cls-4" d="M168.79,303.39a1.93,1.93,0,0,1-1.33,2.23,1.94,1.94,0,0,1-2.11-3,2,2,0,0,1,1.34-.76A2,2,0,0,1,168.79,303.39Zm0,0a1.62,1.62,0,0,0-.78-1.07,1.56,1.56,0,0,0-2.28,1.68,1.58,1.58,0,0,0,1.66,1.26,1.64,1.64,0,0,0,1.1-.59A1.66,1.66,0,0,0,168.79,303.39Z"/>
              <path class="cls-4" d="M169.24,316.49a1.94,1.94,0,0,1-1.33,2.24,1.95,1.95,0,0,1-2.11-3,2,2,0,0,1,1.34-.75A2,2,0,0,1,169.24,316.49Zm0,0a1.57,1.57,0,0,0-2-1.18,1.57,1.57,0,0,0,.61,3.06,1.64,1.64,0,0,0,1.11-.59A1.69,1.69,0,0,0,169.24,316.49Z"/>
              <path class="cls-4" d="M169.69,329.6a1.94,1.94,0,0,1-1.33,2.24,1.94,1.94,0,1,1,1.33-2.24Zm0,0a1.58,1.58,0,0,0-.78-1.06,1.55,1.55,0,0,0-1.24-.12,1.57,1.57,0,0,0,.61,3.06,1.61,1.61,0,0,0,1.11-.6A1.65,1.65,0,0,0,169.69,329.6Z"/>
              <path class="cls-4" d="M170.14,342.71a1.94,1.94,0,0,1-2.86,2.07,1.94,1.94,0,0,1,.76-3.62A2,2,0,0,1,170.14,342.71Zm0,0a1.58,1.58,0,0,0-.78-1.06,1.55,1.55,0,0,0-1.24-.12,1.58,1.58,0,0,0-1,1.8,1.56,1.56,0,0,0,1.65,1.25,1.6,1.6,0,0,0,1.11-.59A1.65,1.65,0,0,0,170.14,342.71Z"/>
              <path class="cls-4" d="M170.59,355.82a2,2,0,0,1-1.33,2.24,2,2,0,0,1-1.53-.17,1.94,1.94,0,0,1,.76-3.62A2,2,0,0,1,170.59,355.82Zm0,0a1.62,1.62,0,0,0-.78-1.07,1.59,1.59,0,0,0-1.24-.11,1.57,1.57,0,0,0,.61,3.05,1.6,1.6,0,0,0,1.11-.59A1.65,1.65,0,0,0,170.59,355.82Z"/>
            </g>
          </g>
          <g>
            <rect class="cls-3" x="127.56" y="382.84" width="48.98" height="5.72" transform="translate(-105.33 60.68) rotate(-16.86)"/>
            <rect class="cls-8" x="127.56" y="382.84" width="48.98" height="5.72" transform="translate(-105.33 60.68) rotate(-16.86)"/>
            <rect class="cls-3" x="147.9" y="381.45" width="5.72" height="8.5" transform="translate(-109.81 63.84) rotate(-17.64)"/>
            <g>
              <polygon class="cls-3" points="129.05 403.57 116.96 351.19 80.45 359.85 98.42 410.89 129.05 403.57"/>
              <g>
                <polygon class="cls-3" points="137.15 400.9 129.05 403.57 116.96 351.19 128.61 353.96 137.15 400.9"/>
                <polygon class="cls-6" points="137.15 400.9 129.05 403.57 116.96 351.19 128.61 353.96 137.15 400.9"/>
              </g>
            </g>
            <circle class="cls-3" cx="175.49" cy="378.6" r="6.21"/>
          </g>
          <g>
            <rect class="cls-3" x="259.17" y="361.12" width="5.72" height="48.98" transform="translate(-183.29 523.61) rotate(-73.02)"/>
            <rect class="cls-8" x="259.17" y="361.12" width="5.72" height="48.98" transform="translate(-183.29 523.61) rotate(-73.02)"/>
            <rect class="cls-3" x="259.07" y="382.75" width="8.5" height="5.72" transform="translate(-184.26 518.66) rotate(-72.23)"/>
            <g>
              <polygon class="cls-3" points="284.98 403.52 297.19 351.17 333.68 359.9 315.6 410.91 284.98 403.52"/>
              <g>
                <polygon class="cls-3" points="276.89 400.84 284.98 403.52 297.19 351.17 285.53 353.92 276.89 400.84"/>
                <polygon class="cls-6" points="276.89 400.84 284.98 403.52 297.19 351.17 285.53 353.92 276.89 400.84"/>
              </g>
            </g>
            <path class="cls-3" d="M232.39,378.44a6.22,6.22,0,1,0,6.23-6.2A6.22,6.22,0,0,0,232.39,378.44Z"/>
          </g>
          <g>
            <g>
              <path class="cls-3" d="M279.29,313.84c.15-.14,15.2-14.11,32.91-9.33,18.12,4.89,33.07,32.17,33.22,32.44l5-2.72C349.8,333,334.2,304.51,313.69,299c-20.85-5.63-37.64,10-38.34,10.7Z"/>
              <path class="cls-8" d="M279.29,313.84c.15-.14,15.2-14.11,32.91-9.33,18.12,4.89,33.07,32.17,33.22,32.44l5-2.72C349.8,333,334.2,304.51,313.69,299c-20.85-5.63-37.64,10-38.34,10.7Z"/>
            </g>
            <path class="cls-3" d="M338.74,364.42l10.85-5.73a23,23,0,0,1-2.51-8.42c-.24-4,1.33-5.36,3.07-6.27,3.8-2,6.07-1.21,7.61-.3,2.18,1.28,4.39,3.91,6.23,7.39l10.84-5.72c-3-5.63-6.61-9.74-10.83-12.23s-11-4.5-19.58,0c-6.67,3.52-10.07,9.87-9.58,17.87A35.42,35.42,0,0,0,338.74,364.42Z"/>
          </g>
          <g>
            <path class="cls-2" d="M281.58,294.73c2.35-1.63,4.75-3.16,7.17-4.67s4.86-3,7.3-4.44,4.93-2.88,7.43-4.24l3.75-2.05c1.27-.66,2.53-1.34,3.81-2-1.17.82-2.37,1.58-3.56,2.38L303.87,282c-2.41,1.52-4.86,3-7.31,4.44s-4.92,2.87-7.42,4.24S284.14,293.46,281.58,294.73Z"/>
            <path class="cls-2" d="M275.35,318.13c3.36,1.92,6.55,4.08,9.7,6.31s6.22,4.56,9.13,7.12c-3.37-1.92-6.56-4.08-9.71-6.31S278.26,320.69,275.35,318.13Z"/>
            <path class="cls-2" d="M280.88,315.25c2.59.79,5.15,1.68,7.7,2.59s5.09,1.86,7.61,2.83,5,2,7.53,3.06l3.73,1.6c1.24.57,2.48,1.1,3.7,1.7-1.3-.39-2.58-.83-3.87-1.24l-3.84-1.35c-2.55-.89-5.08-1.86-7.61-2.83s-5-2-7.52-3.06S283.32,316.42,280.88,315.25Z"/>
            <path class="cls-2" d="M288.26,296.92c2.49-.64,5-1.18,7.51-1.71s5-1,7.55-1.44,5.06-.87,7.6-1.22l3.81-.53c1.28-.14,2.55-.31,3.83-.42-1.24.33-2.5.6-3.74.9l-3.77.81c-2.51.53-5,1-7.55,1.44s-5.06.86-7.6,1.22S290.82,296.68,288.26,296.92Z"/>
          </g>
        </g>
        <g>
          <path class="cls-2" d="M228.25,312.49a26.71,26.71,0,0,1,2-5.87,23.73,23.73,0,0,1,3.3-5.28,12.86,12.86,0,0,1,5-3.76,8.86,8.86,0,0,1,6.31.07,8.4,8.4,0,0,1,4.5,4.46,10.25,10.25,0,0,1,.85,3.12,6.91,6.91,0,0,1-.37,3.26,3,3,0,0,1-1.11,1.42,2.19,2.19,0,0,1-.9.34,2.09,2.09,0,0,1-1-.1,2.77,2.77,0,0,1-1.29-1.31,8.27,8.27,0,0,1-.59-1.54,20.39,20.39,0,0,1-.52-6.31,26,26,0,0,1,3.65-12,15.76,15.76,0,0,1,4.34-4.61,13.24,13.24,0,0,1,5.89-2.27,16.52,16.52,0,0,1,3.14-.28,10.48,10.48,0,0,1,1.58.1,10.26,10.26,0,0,1,1.56.21,19.38,19.38,0,0,1,5.85,2.22,24.36,24.36,0,0,1,4.9,3.84,25.72,25.72,0,0,1,3.86,4.85,26.94,26.94,0,0,0-9-8.26,19,19,0,0,0-5.73-2,9.43,9.43,0,0,0-1.5-.16,9.67,9.67,0,0,0-1.52-.07,16,16,0,0,0-3,.34,13,13,0,0,0-5.53,2.22,14.82,14.82,0,0,0-4.06,4.39,25.08,25.08,0,0,0-3.42,11.53,19.71,19.71,0,0,0,.44,6,3.55,3.55,0,0,0,1.31,2.24c.08,0,.13,0,.23,0a2.71,2.71,0,0,0,.29,0,1.18,1.18,0,0,0,.54-.2,2,2,0,0,0,.76-1,6.08,6.08,0,0,0,.33-2.83,9.13,9.13,0,0,0-.76-2.84,7.8,7.8,0,0,0-4-4.12,8.11,8.11,0,0,0-5.8-.17,12.3,12.3,0,0,0-4.87,3.48A26.94,26.94,0,0,0,228.25,312.49Z"/>
          <path class="cls-2" d="M135.84,338.41a14.39,14.39,0,0,1,4-4.64,15.12,15.12,0,0,1,5.6-2.68,12,12,0,0,1,6.26.12,12.56,12.56,0,0,1,5.34,3.33,15.85,15.85,0,0,1,3.34,5.33,14.59,14.59,0,0,1,1,6.22,5.2,5.2,0,0,1-1.16,3.13,2.42,2.42,0,0,1-1.68.76,3.74,3.74,0,0,1-1.73-.39,2.88,2.88,0,0,1-1.24-1.32,4.43,4.43,0,0,1-.37-1.68,9.23,9.23,0,0,1,.53-3.2,18.48,18.48,0,0,1,3.06-5.51,22.25,22.25,0,0,1,4.53-4.35,16.82,16.82,0,0,1,11.91-3.27,15.85,15.85,0,0,1,10.68,6,21.84,21.84,0,0,1,3.09,5.38,25.12,25.12,0,0,1,1.63,6,25,25,0,0,0-5.11-11,15.7,15.7,0,0,0-4.65-3.82,15.54,15.54,0,0,0-5.73-1.72,16.23,16.23,0,0,0-11.28,3.23,20.52,20.52,0,0,0-7.2,9.42,8.39,8.39,0,0,0-.5,2.85,2.42,2.42,0,0,0,1.1,2.21,2.77,2.77,0,0,0,1.25.29,1.48,1.48,0,0,0,1-.47,4.25,4.25,0,0,0,.92-2.56,13.72,13.72,0,0,0-.94-5.85,15.52,15.52,0,0,0-3.12-5.07,11.92,11.92,0,0,0-5-3.22,11.36,11.36,0,0,0-5.93-.26A15.34,15.34,0,0,0,135.84,338.41Z"/>
          <path class="cls-2" d="M89.58,96.91A27,27,0,0,0,86.68,85a12.43,12.43,0,0,0-3.9-4.54,8.21,8.21,0,0,0-5.68-1.22,7.88,7.88,0,0,0-4.88,3,9.19,9.19,0,0,0-1.41,2.59,6.13,6.13,0,0,0-.36,2.82A2.14,2.14,0,0,0,71,88.88a1.27,1.27,0,0,0,.47.32,2.29,2.29,0,0,0,.28.08,1.91,1.91,0,0,0,.24,0c.68-.13,1.35-1,1.8-1.86a19.29,19.29,0,0,0,1.86-5.72,25,25,0,0,0-.57-12,14.91,14.91,0,0,0-2.89-5.23A13.05,13.05,0,0,0,67.31,61a15.93,15.93,0,0,0-2.85-1,9.24,9.24,0,0,0-1.48-.3,9.61,9.61,0,0,0-1.51-.2,19,19,0,0,0-6,.6,27,27,0,0,0-10.71,5.88,26.18,26.18,0,0,1,4.9-3.79,24.42,24.42,0,0,1,5.68-2.56,19.15,19.15,0,0,1,6.21-.76,10.33,10.33,0,0,1,1.57.17,9.85,9.85,0,0,1,1.55.28,16.47,16.47,0,0,1,3,1,13.25,13.25,0,0,1,5.18,3.61,15.82,15.82,0,0,1,3.11,5.52,25.88,25.88,0,0,1,.69,12.48,20.61,20.61,0,0,1-2,6,7.74,7.74,0,0,1-1,1.36,2.74,2.74,0,0,1-1.56,1,2.07,2.07,0,0,1-1-.14,2.24,2.24,0,0,1-.8-.55,3,3,0,0,1-.73-1.64A6.88,6.88,0,0,1,70,84.61a10.11,10.11,0,0,1,1.56-2.82A8.41,8.41,0,0,1,77,78.53,8.89,8.89,0,0,1,83.13,80a12.89,12.89,0,0,1,4,4.85,23.91,23.91,0,0,1,2,5.92A27.23,27.23,0,0,1,89.58,96.91Z"/>
          <path class="cls-2" d="M310.4,149.08a27,27,0,0,0-12.22,0,12.33,12.33,0,0,0-5.33,2.73,8.2,8.2,0,0,0-2.51,5.24,7.84,7.84,0,0,0,1.82,5.45,9.08,9.08,0,0,0,2.18,2,6.08,6.08,0,0,0,2.67,1,2.08,2.08,0,0,0,1.23-.22,1.3,1.3,0,0,0,.42-.39,2,2,0,0,0,.14-.25c0-.09,0-.16.06-.24,0-.69-.69-1.55-1.39-2.18a19.26,19.26,0,0,0-5.12-3.14,25.08,25.08,0,0,0-11.83-2.25,14.7,14.7,0,0,0-5.75,1.59,13.13,13.13,0,0,0-4.52,3.9,15.79,15.79,0,0,0-1.68,2.52,8.91,8.91,0,0,0-.63,1.37,9.06,9.06,0,0,0-.55,1.42,19.09,19.09,0,0,0-.83,6,27.09,27.09,0,0,0,3.22,11.79,26.41,26.41,0,0,1-2.54-5.66,24.45,24.45,0,0,1-1.17-6.12,19.28,19.28,0,0,1,.72-6.22,10.05,10.05,0,0,1,.53-1.48,9.24,9.24,0,0,1,.63-1.44,17.19,17.19,0,0,1,1.69-2.67,13.14,13.14,0,0,1,4.72-4.19,15.57,15.57,0,0,1,6.09-1.74,26,26,0,0,1,12.3,2.24,20.51,20.51,0,0,1,5.37,3.36,7.66,7.66,0,0,1,1.1,1.23,2.82,2.82,0,0,1,.57,1.75,2.06,2.06,0,0,1-.38.93,2.17,2.17,0,0,1-.71.64,3,3,0,0,1-1.77.34,7,7,0,0,1-3.07-1.17,10.29,10.29,0,0,1-2.38-2.18,8.4,8.4,0,0,1-1.9-6.05,8.88,8.88,0,0,1,2.84-5.64,12.71,12.71,0,0,1,5.64-2.74,23.61,23.61,0,0,1,6.21-.52A26.52,26.52,0,0,1,310.4,149.08Z"/>
          <path class="cls-2" d="M248.49,84.38a17,17,0,0,1-.4-7.35,18.25,18.25,0,0,1,2.57-7A14.34,14.34,0,0,1,256.11,65a14.86,14.86,0,0,1,7.32-1.61,18.78,18.78,0,0,1,7.29,1.77,17.24,17.24,0,0,1,6.07,4.45,6.1,6.1,0,0,1,1.6,3.59,2.82,2.82,0,0,1-.79,2,4.29,4.29,0,0,1-1.76,1.09,3.31,3.31,0,0,1-2.11-.1,5,5,0,0,1-1.69-1.1,10.84,10.84,0,0,1-2.2-3.16,21.91,21.91,0,0,1-2-7.25,26.12,26.12,0,0,1,.23-7.49,20.13,20.13,0,0,1,7.42-12.73,19.19,19.19,0,0,1,6.69-3.33,19.46,19.46,0,0,1,7.44-.48,26.36,26.36,0,0,1,7.14,2,29.89,29.89,0,0,1,6.39,3.7,29.78,29.78,0,0,0-13.59-5.2,19,19,0,0,0-7.2.6A18.55,18.55,0,0,0,276,45.05a18.75,18.75,0,0,0-4.65,5.46,21.23,21.23,0,0,0-2.36,6.8,24.72,24.72,0,0,0,1.73,14.15,10,10,0,0,0,2,2.89,3,3,0,0,0,2.88,1,3.16,3.16,0,0,0,1.35-.82,1.86,1.86,0,0,0,.54-1.35,5.32,5.32,0,0,0-1.38-3,16.55,16.55,0,0,0-5.73-4.24,18.74,18.74,0,0,0-7-1.74,14.25,14.25,0,0,0-7,1.42,13.68,13.68,0,0,0-5.31,4.77A18.38,18.38,0,0,0,248.49,84.38Z"/>
          <g>
            <path class="cls-10" d="M132.5,338.63a4.25,4.25,0,1,0,2.78,5.33A4.25,4.25,0,0,0,132.5,338.63Zm2.28,5.17a3.73,3.73,0,1,1-2.43-4.68A3.73,3.73,0,0,1,134.78,343.8Zm-2.28-5.17a4.25,4.25,0,1,0,2.78,5.33A4.25,4.25,0,0,0,132.5,338.63Zm2.28,5.17a3.73,3.73,0,1,1-2.43-4.68A3.73,3.73,0,0,1,134.78,343.8Zm-2.28-5.17a4.25,4.25,0,1,0,2.78,5.33A4.25,4.25,0,0,0,132.5,338.63Zm2.28,5.17a3.73,3.73,0,1,1-2.43-4.68A3.73,3.73,0,0,1,134.78,343.8Zm-.86-9.67a9,9,0,1,0,5.85,11.25A9,9,0,0,0,133.92,334.13Zm2,10A4.91,4.91,0,1,1,132.7,338,4.93,4.93,0,0,1,135.91,344.16Zm-.63-.2a4.25,4.25,0,1,0-5.33,2.78A4.25,4.25,0,0,0,135.28,344Zm-.5-.16a3.73,3.73,0,1,1-2.43-4.68A3.73,3.73,0,0,1,134.78,343.8Zm-2.28-5.17a4.25,4.25,0,1,0,2.78,5.33A4.25,4.25,0,0,0,132.5,338.63Zm2.28,5.17a3.73,3.73,0,1,1-2.43-4.68A3.73,3.73,0,0,1,134.78,343.8Zm-2.28-5.17a4.25,4.25,0,1,0,2.78,5.33A4.25,4.25,0,0,0,132.5,338.63Zm2.28,5.17a3.73,3.73,0,1,1-2.43-4.68A3.73,3.73,0,0,1,134.78,343.8Z"/>
            <g>
              <polygon class="cls-10" points="130.28 351.39 127 350.36 126.44 352.74 129.37 353.66 130.28 351.39"/>
              <polygon class="cls-10" points="124.38 348.31 122.78 345.26 120.71 346.56 122.12 349.27 124.38 348.31"/>
              <polygon class="cls-10" points="122.38 341.96 123.41 338.68 121.03 338.12 120.11 341.05 122.38 341.96"/>
              <polygon class="cls-10" points="125.45 336.05 128.51 334.46 127.22 332.39 124.5 333.8 125.45 336.05"/>
              <polygon class="cls-10" points="131.81 334.06 135.09 335.09 135.65 332.71 132.72 331.79 131.81 334.06"/>
              <polygon class="cls-10" points="137.72 337.13 139.31 340.19 141.38 338.89 139.97 336.18 137.72 337.13"/>
              <polygon class="cls-10" points="139.72 343.49 138.68 346.77 141.06 347.32 141.99 344.4 139.72 343.49"/>
              <polygon class="cls-10" points="136.64 349.39 133.58 350.99 134.88 353.06 137.59 351.65 136.64 349.39"/>
            </g>
          </g>
          <g>
            <g>
              <path class="cls-2" d="M298.3,310.05a13.7,13.7,0,1,0-19.16,2.84A13.69,13.69,0,0,0,298.3,310.05Zm-5.86-4.35a6.4,6.4,0,1,1-1.33-8.94A6.39,6.39,0,0,1,292.44,305.7Z"/>
              <polygon class="cls-2" points="281.59 314 277.36 310.87 275.37 314.03 279.13 316.83 281.59 314"/>
              <polygon class="cls-2" points="274.6 306.61 273.82 301.39 270.18 302.23 270.86 306.86 274.6 306.61"/>
              <polygon class="cls-2" points="274.88 296.43 278.02 292.2 274.86 290.21 272.06 293.97 274.88 296.43"/>
              <polygon class="cls-2" points="282.28 289.43 287.49 288.66 286.66 285.02 282.03 285.7 282.28 289.43"/>
              <polygon class="cls-2" points="292.46 289.72 296.69 292.86 298.68 289.69 294.92 286.9 292.46 289.72"/>
              <polygon class="cls-2" points="299.45 297.12 300.23 302.33 303.87 301.5 303.19 296.86 299.45 297.12"/>
              <polygon class="cls-2" points="299.17 307.3 296.03 311.53 299.2 313.52 301.99 309.75 299.17 307.3"/>
              <polygon class="cls-2" points="291.77 314.29 286.56 315.06 287.39 318.71 292.02 318.02 291.77 314.29"/>
            </g>
            <path class="cls-2" d="M282.39,302.55l2.91,3.67,4.64-.69,1.72-4.35-2.91-3.67-4.64.68Zm5.52-1.88a1.49,1.49,0,1,1-2.08.31A1.49,1.49,0,0,1,287.91,300.67Z"/>
          </g>
          <g>
            <path class="cls-2" d="M308.57,43.31A3.72,3.72,0,1,0,311,48,3.72,3.72,0,0,0,308.57,43.31Zm2,4.53a3.27,3.27,0,1,1-2.14-4.1A3.27,3.27,0,0,1,310.57,47.84Zm-2-4.53A3.72,3.72,0,1,0,311,48,3.72,3.72,0,0,0,308.57,43.31Zm2,4.53a3.27,3.27,0,1,1-2.14-4.1A3.27,3.27,0,0,1,310.57,47.84Zm-2-4.53A3.72,3.72,0,1,0,311,48,3.72,3.72,0,0,0,308.57,43.31Zm2,4.53a3.27,3.27,0,1,1-2.14-4.1A3.27,3.27,0,0,1,310.57,47.84Zm-.76-8.46a7.84,7.84,0,1,0,5.12,9.83A7.84,7.84,0,0,0,309.81,39.38Zm1.74,8.77a4.3,4.3,0,1,1-2.81-5.39A4.3,4.3,0,0,1,311.55,48.15ZM311,48a3.72,3.72,0,1,0-4.67,2.43A3.71,3.71,0,0,0,311,48Zm-.43-.13a3.27,3.27,0,1,1-2.14-4.1A3.27,3.27,0,0,1,310.57,47.84Zm-2-4.53A3.72,3.72,0,1,0,311,48,3.72,3.72,0,0,0,308.57,43.31Zm2,4.53a3.27,3.27,0,1,1-2.14-4.1A3.27,3.27,0,0,1,310.57,47.84Zm-2-4.53A3.72,3.72,0,1,0,311,48,3.72,3.72,0,0,0,308.57,43.31Zm2,4.53a3.27,3.27,0,1,1-2.14-4.1A3.27,3.27,0,0,1,310.57,47.84Z"/>
            <g>
              <polygon class="cls-2" points="306.63 54.48 303.75 53.57 303.27 55.66 305.83 56.46 306.63 54.48"/>
              <polygon class="cls-2" points="301.46 51.78 300.07 49.11 298.25 50.24 299.49 52.62 301.46 51.78"/>
              <polygon class="cls-2" points="299.71 46.22 300.62 43.35 298.53 42.87 297.72 45.42 299.71 46.22"/>
              <polygon class="cls-2" points="302.4 41.05 305.08 39.66 303.94 37.85 301.57 39.09 302.4 41.05"/>
              <polygon class="cls-2" points="307.96 39.3 310.84 40.21 311.32 38.13 308.76 37.32 307.96 39.3"/>
              <polygon class="cls-2" points="313.13 42 314.53 44.67 316.34 43.54 315.1 41.16 313.13 42"/>
              <polygon class="cls-2" points="314.88 47.56 313.98 50.44 316.06 50.92 316.87 48.36 314.88 47.56"/>
              <polygon class="cls-2" points="312.19 52.73 309.51 54.12 310.65 55.94 313.03 54.7 312.19 52.73"/>
            </g>
          </g>
          <g>
            <path class="cls-2" d="M270.35,186.17a3.72,3.72,0,1,0,2.43,4.67A3.71,3.71,0,0,0,270.35,186.17Zm2,4.53a3.27,3.27,0,1,1-2.13-4.09A3.27,3.27,0,0,1,272.35,190.7Zm-2-4.53a3.72,3.72,0,1,0,2.43,4.67A3.71,3.71,0,0,0,270.35,186.17Zm2,4.53a3.27,3.27,0,1,1-2.13-4.09A3.27,3.27,0,0,1,272.35,190.7Zm-2-4.53a3.72,3.72,0,1,0,2.43,4.67A3.71,3.71,0,0,0,270.35,186.17Zm2,4.53a3.27,3.27,0,1,1-2.13-4.09A3.27,3.27,0,0,1,272.35,190.7Zm-.76-8.46a7.84,7.84,0,1,0,5.12,9.84A7.86,7.86,0,0,0,271.59,182.24Zm1.74,8.77a4.3,4.3,0,1,1-2.8-5.39A4.3,4.3,0,0,1,273.33,191Zm-.55-.17a3.72,3.72,0,1,0-4.66,2.43A3.72,3.72,0,0,0,272.78,190.84Zm-.43-.14a3.27,3.27,0,1,1-2.13-4.09A3.27,3.27,0,0,1,272.35,190.7Zm-2-4.53a3.72,3.72,0,1,0,2.43,4.67A3.71,3.71,0,0,0,270.35,186.17Zm2,4.53a3.27,3.27,0,1,1-2.13-4.09A3.27,3.27,0,0,1,272.35,190.7Zm-2-4.53a3.72,3.72,0,1,0,2.43,4.67A3.71,3.71,0,0,0,270.35,186.17Zm2,4.53a3.27,3.27,0,1,1-2.13-4.09A3.27,3.27,0,0,1,272.35,190.7Z"/>
            <g>
              <polygon class="cls-2" points="268.41 197.34 265.54 196.44 265.06 198.52 267.61 199.33 268.41 197.34"/>
              <polygon class="cls-2" points="263.24 194.65 261.85 191.97 260.04 193.11 261.27 195.49 263.24 194.65"/>
              <polygon class="cls-2" points="261.49 189.09 262.4 186.21 260.31 185.73 259.51 188.29 261.49 189.09"/>
              <polygon class="cls-2" points="264.19 183.92 266.86 182.53 265.73 180.71 263.35 181.95 264.19 183.92"/>
              <polygon class="cls-2" points="269.75 182.17 272.62 183.08 273.11 180.99 270.55 180.18 269.75 182.17"/>
              <polygon class="cls-2" points="274.92 184.86 276.31 187.54 278.13 186.41 276.89 184.03 274.92 184.86"/>
              <polygon class="cls-2" points="276.67 190.42 275.76 193.3 277.85 193.78 278.65 191.22 276.67 190.42"/>
              <polygon class="cls-2" points="273.97 195.59 271.3 196.99 272.43 198.8 274.81 197.56 273.97 195.59"/>
            </g>
          </g>
          <g>
            <g>
              <path class="cls-2" d="M51.65,73.7A11.8,11.8,0,1,0,37.4,82.37,11.79,11.79,0,0,0,51.65,73.7Zm-6.11-1.49a5.51,5.51,0,1,1-4-6.65A5.51,5.51,0,0,1,45.54,72.21Z"/>
              <polygon class="cls-2" points="39.71 82.43 35.31 81.36 34.79 84.53 38.71 85.49 39.71 82.43"/>
              <polygon class="cls-2" points="31.69 78.9 29.33 75.03 26.72 76.91 28.81 80.36 31.69 78.9"/>
              <polygon class="cls-2" points="28.51 70.73 29.58 66.32 26.4 65.81 25.45 69.73 28.51 70.73"/>
              <polygon class="cls-2" points="32.04 62.7 35.91 60.35 34.03 57.73 30.58 59.83 32.04 62.7"/>
              <polygon class="cls-2" points="40.21 59.52 44.61 60.6 45.13 57.42 41.21 56.46 40.21 59.52"/>
              <polygon class="cls-2" points="48.23 63.05 50.59 66.93 53.2 65.05 51.11 61.6 48.23 63.05"/>
              <polygon class="cls-2" points="51.41 71.22 50.34 75.63 53.52 76.15 54.47 72.23 51.41 71.22"/>
              <polygon class="cls-2" points="47.88 79.25 44.01 81.61 45.89 84.22 49.34 82.12 47.88 79.25"/>
            </g>
            <path class="cls-2" d="M36.51,73.07,40.05,75l3.45-2.1-.1-4L39.87,67,36.42,69Zm3.75-3.34a1.28,1.28,0,1,1-1.54.94A1.28,1.28,0,0,1,40.26,69.73Z"/>
          </g>
        </g>
        <g>
          <g>
            <path class="cls-7" d="M318.22,195.64A24.55,24.55,0,0,1,314,182.07c0-17.2,18.89-31.14,42.17-31.14s42.14,13.94,42.14,31.14-18.87,31.14-42.14,31.14c-11.29,0-21.53-3.27-29.09-8.62l-14.52,3.7Z"/>
            <path class="cls-2" d="M318.22,195.64a24.84,24.84,0,0,1-4.3-12.83,24.56,24.56,0,0,1,3.35-13.17,33.27,33.27,0,0,1,9.28-10.06,44.2,44.2,0,0,1,12.22-6.22,56.77,56.77,0,0,1,13.47-2.69,57.94,57.94,0,0,1,13.73.7c1.12.23,2.26.38,3.38.68l3.33.89,3.25,1.15c1.08.39,2.11.92,3.17,1.37a40.48,40.48,0,0,1,11.31,7.83A28.75,28.75,0,0,1,397.7,175a23.55,23.55,0,0,1,.14,13.76,28.43,28.43,0,0,1-7.11,11.78,40.29,40.29,0,0,1-11.22,8,49.52,49.52,0,0,1-13.09,4.19,57.27,57.27,0,0,1-13.71.79,53.75,53.75,0,0,1-13.48-2.57A45.15,45.15,0,0,1,327,204.78l.19,0-14.55,3.58-.22.06.09-.21Zm0,0-5.55,12.69-.13-.15,14.5-3.81.1,0,.09.06a49.62,49.62,0,0,0,25.52,8.33,56.75,56.75,0,0,0,13.52-.89,48.88,48.88,0,0,0,12.86-4.17,39.45,39.45,0,0,0,10.94-7.81,27.64,27.64,0,0,0,6.85-11.41,22.74,22.74,0,0,0-.17-13.2,28,28,0,0,0-7-11.3,39.76,39.76,0,0,0-11-7.67c-1-.45-2-1-3.1-1.36l-3.19-1.13-3.27-.89c-1.09-.3-2.22-.45-3.32-.68a58.31,58.31,0,0,0-13.52-.74A55.66,55.66,0,0,0,339,154a43.13,43.13,0,0,0-12.11,6,33.54,33.54,0,0,0-9.25,9.81,24.33,24.33,0,0,0-3.51,12.94A24.78,24.78,0,0,0,318.22,195.64Z"/>
          </g>
          <g>
            <path class="cls-2" d="M334.49,187.17v2.31h-9.44V175.9h9.27v2.31h-6.63v3.27h5.73v2.15h-5.73v3.54Z"/>
            <path class="cls-2" d="M336.55,189.48V175.9h6a3.9,3.9,0,0,1,1.74.39,4.49,4.49,0,0,1,1.36,1,4.58,4.58,0,0,1,.9,1.46,4.28,4.28,0,0,1,.33,1.63,4.57,4.57,0,0,1-.66,2.41,3.74,3.74,0,0,1-1.79,1.55l3.1,5.11h-3l-2.77-4.55h-2.6v4.55Zm2.65-6.87h3.31a1.35,1.35,0,0,0,.68-.17,1.61,1.61,0,0,0,.54-.47,2.11,2.11,0,0,0,.36-.7,2.63,2.63,0,0,0,.14-.86,2.5,2.5,0,0,0-.15-.88,2.46,2.46,0,0,0-.42-.7,1.82,1.82,0,0,0-.59-.45,1.52,1.52,0,0,0-.68-.17H339.2Z"/>
            <path class="cls-2" d="M349.28,189.48V175.9h6a3.88,3.88,0,0,1,1.73.39,4.53,4.53,0,0,1,1.37,1,5,5,0,0,1,.9,1.46,4.26,4.26,0,0,1,.32,1.63,4.57,4.57,0,0,1-.66,2.41,3.7,3.7,0,0,1-1.79,1.55l3.11,5.11h-3l-2.78-4.55h-2.6v4.55Zm2.64-6.87h3.31a1.35,1.35,0,0,0,.68-.17,1.75,1.75,0,0,0,.55-.47,2.31,2.31,0,0,0,.36-.7,2.63,2.63,0,0,0,.13-.86,2.5,2.5,0,0,0-.15-.88,2.43,2.43,0,0,0-.41-.7,1.82,1.82,0,0,0-.59-.45,1.55,1.55,0,0,0-.68-.17h-3.2Z"/>
            <path class="cls-2" d="M367.81,189.58a6.15,6.15,0,0,1-2.71-.58,6.74,6.74,0,0,1-2.09-1.55,7.14,7.14,0,0,1-1.35-2.21,7,7,0,0,1-.48-2.55,6.77,6.77,0,0,1,.51-2.6,7,7,0,0,1,1.4-2.2,6.55,6.55,0,0,1,2.11-1.52,6.26,6.26,0,0,1,2.66-.57,6,6,0,0,1,2.69.6,7,7,0,0,1,2.08,1.58A7.36,7.36,0,0,1,374,180.2a6.93,6.93,0,0,1,0,5.12,6.85,6.85,0,0,1-1.38,2.18,6.66,6.66,0,0,1-2.1,1.52A6.41,6.41,0,0,1,367.81,189.58Zm-3.95-6.89a5.36,5.36,0,0,0,.27,1.7,4.55,4.55,0,0,0,.78,1.46,3.7,3.7,0,0,0,1.24,1,3.53,3.53,0,0,0,1.68.39,3.57,3.57,0,0,0,1.69-.4,3.89,3.89,0,0,0,1.24-1,4.54,4.54,0,0,0,.77-1.46,5.58,5.58,0,0,0,.26-1.66,5.41,5.41,0,0,0-.28-1.7,4.77,4.77,0,0,0-.79-1.46,3.68,3.68,0,0,0-1.24-1,3.58,3.58,0,0,0-1.65-.38,3.67,3.67,0,0,0-2.95,1.43,4.61,4.61,0,0,0-.76,1.46A5.47,5.47,0,0,0,363.86,182.69Z"/>
            <path class="cls-2" d="M376.47,189.48V175.9h6a3.9,3.9,0,0,1,1.74.39,4.65,4.65,0,0,1,2.26,2.49,4.28,4.28,0,0,1,.33,1.63,4.57,4.57,0,0,1-.66,2.41,3.74,3.74,0,0,1-1.79,1.55l3.1,5.11h-3l-2.77-4.55h-2.6v4.55Zm2.65-6.87h3.31a1.35,1.35,0,0,0,.68-.17,1.61,1.61,0,0,0,.54-.47,2.11,2.11,0,0,0,.36-.7,2.63,2.63,0,0,0,.14-.86,2.5,2.5,0,0,0-.15-.88,2.46,2.46,0,0,0-.42-.7,1.82,1.82,0,0,0-.59-.45,1.52,1.52,0,0,0-.68-.17h-3.19Z"/>
          </g>
        </g>
      </g>
    </g>
  </g>
</svg>
